<svg width="36" height="37" viewBox="0 0 36 37" fill="none" xmlns="http://www.w3.org/2000/svg">
<path d="M21.6209 9.29162L17.7499 2.20288C17.5097 1.76318 16.8783 1.76318 16.6381 2.20288L12.7671 9.29162C14.0844 8.57596 15.5917 8.17062 17.194 8.17062C18.7963 8.17062 20.3036 8.57596 21.6209 9.29162Z" fill="white"/>
<path d="M1.94174 16.8993C1.502 17.1395 1.502 17.7709 1.94174 18.011L9.03044 21.8821C8.31478 20.5648 7.90948 19.0575 7.90948 17.4552C7.90948 15.8529 8.31478 14.3455 9.03044 13.0283L1.94174 16.8993Z" fill="white"/>
<path d="M32.4463 16.8993L25.3576 13.0283C26.0733 14.3455 26.4786 15.8529 26.4786 17.4552C26.4786 19.0575 26.0733 20.5648 25.3576 21.8821L32.4463 18.011C32.886 17.7709 32.886 17.1395 32.4463 16.8993Z" fill="white"/>
<path d="M12.7671 25.6188L16.6381 32.7075C16.8783 33.1472 17.5097 33.1472 17.7499 32.7075L21.6209 25.6188C20.3036 26.3344 18.7963 26.7397 17.194 26.7397C15.5917 26.7397 14.0844 26.3344 12.7671 25.6188Z" fill="white"/>
<path d="M17.1941 22.8385C20.1672 22.8385 22.5773 20.4283 22.5773 17.4552C22.5773 14.4821 20.1672 12.0719 17.1941 12.0719C14.221 12.0719 11.8108 14.4821 11.8108 17.4552C11.8108 20.4283 14.221 22.8385 17.1941 22.8385Z" fill="white"/>
</svg>
