<svg width="36" height="37" viewBox="0 0 36 37" fill="none" xmlns="http://www.w3.org/2000/svg">
<path d="M17.862 11.1436V20.6359H14.3024V11.1436H17.862ZM14.3024 11.1436V20.6359H17.862V11.1436H14.3024ZM24.4715 29.0252C19.8385 33.6583 12.328 33.6583 7.69293 29.0252C3.05988 24.3922 3.05988 16.8817 7.69293 12.2466C9.55618 10.3833 11.881 9.26914 14.3024 8.90572V4.0224H17.862V8.90572C20.2833 9.26725 22.6082 10.3833 24.4715 12.2466C29.1046 16.8796 29.1046 24.3901 24.4715 29.0252ZM17.862 11.1436H14.3024V20.6359H17.862V11.1436ZM26.7445 4.93846L23.3925 8.29598L28.4244 13.3331L31.7819 9.97555L26.7445 4.93846Z" fill="white"/>
</svg>
