<svg width="36" height="37" viewBox="0 0 36 37" fill="none" xmlns="http://www.w3.org/2000/svg">
<path d="M29.0955 16.1948C28.9347 15.823 28.481 15.6181 27.8204 15.6181H20.3386C20.1464 15.6181 19.9899 15.5495 19.899 15.4255C19.8077 15.3015 19.7887 15.1316 19.8462 14.9481L22.8922 5.17254C23.1687 4.28525 23.2024 3.68983 22.9915 3.40365C22.9012 3.28095 22.7708 3.21643 22.613 3.21643C22.265 3.21643 21.7846 3.54139 21.1871 4.18228L7.3536 19.0011C6.90227 19.4842 6.74279 19.9552 6.90461 20.3276C7.06575 20.6994 7.51909 20.9047 8.18004 20.9047H15.6615C15.8537 20.9047 16.0102 20.9729 16.1014 21.0969C16.1924 21.221 16.2114 21.3908 16.1539 21.5747L13.1079 31.3492C12.8314 32.2365 12.798 32.8326 13.0086 33.1188C13.0989 33.2408 13.2293 33.306 13.3871 33.306C13.7351 33.306 14.2149 32.981 14.813 32.3398L28.6462 17.522C29.0972 17.0383 29.2573 16.5672 29.0955 16.1948Z" fill="white"/>
</svg>
