<svg width="22" height="44" viewBox="0 0 22 44" fill="none" xmlns="http://www.w3.org/2000/svg">
<g clip-path="url(#clip0_252_751)">
<path d="M0.950513 31.3641L3.37231 33.642L21.7229 16.382L19.3011 14.1041L0.950513 31.3641Z" fill="url(#paint0_linear_252_751)"/>
<path d="M21.7255 20.9351L19.3037 18.6572L0.953076 35.9172L3.37488 38.1951L21.7255 20.9351Z" fill="url(#paint1_linear_252_751)"/>
<path d="M0.952893 40.4732L3.37469 42.7511L21.7253 25.4911L19.3035 23.2132L0.952893 40.4732Z" fill="url(#paint2_linear_252_751)"/>
<path d="M21.7233 2.71399L19.3015 0.436127L0.950879 17.6961L3.37268 19.974L21.7233 2.71399Z" fill="url(#paint3_linear_252_751)"/>
<path d="M21.7229 11.826L19.3011 9.5481L0.950451 26.8081L3.37225 29.086L21.7229 11.826Z" fill="url(#paint4_linear_252_751)"/>
<path d="M0.947644 22.2548L3.36945 24.5327L21.7201 7.27265L19.2983 4.99478L0.947644 22.2548Z" fill="url(#paint5_linear_252_751)"/>
</g>
<defs>
<linearGradient id="paint0_linear_252_751" x1="1.67465" y1="32.6527" x2="19.5158" y2="14.3273" gradientUnits="userSpaceOnUse">
<stop stop-color="white"/>
<stop offset="1" stop-color="white" stop-opacity="0"/>
</linearGradient>
<linearGradient id="paint1_linear_252_751" x1="21.0013" y1="19.6466" x2="3.16043" y2="37.9716" gradientUnits="userSpaceOnUse">
<stop stop-color="white"/>
<stop offset="1" stop-color="white" stop-opacity="0"/>
</linearGradient>
<linearGradient id="paint2_linear_252_751" x1="1.67667" y1="41.762" x2="19.5179" y2="23.437" gradientUnits="userSpaceOnUse">
<stop stop-color="white"/>
<stop offset="1" stop-color="white" stop-opacity="0"/>
</linearGradient>
<linearGradient id="paint3_linear_252_751" x1="20.4987" y1="1.55764" x2="3.42334" y2="19.7764" gradientUnits="userSpaceOnUse">
<stop stop-color="white"/>
<stop offset="1" stop-color="white" stop-opacity="0"/>
</linearGradient>
<linearGradient id="paint4_linear_252_751" x1="20.33" y1="10.7072" x2="3.45027" y2="28.9741" gradientUnits="userSpaceOnUse">
<stop stop-color="white"/>
<stop offset="1" stop-color="white" stop-opacity="0"/>
</linearGradient>
<linearGradient id="paint5_linear_252_751" x1="2.17301" y1="23.411" x2="19.248" y2="5.19261" gradientUnits="userSpaceOnUse">
<stop stop-color="white"/>
<stop offset="1" stop-color="white" stop-opacity="0"/>
</linearGradient>
<clipPath id="clip0_252_751">
<rect width="20.7775" height="42.3149" fill="white" transform="translate(0.947937 0.436249)"/>
</clipPath>
</defs>
</svg>
