<svg width="135" height="10" viewBox="0 0 135 10" fill="none" xmlns="http://www.w3.org/2000/svg">
<path d="M23.676 5.11185C23.676 5.27605 23.6888 5.48546 23.7188 5.74247C23.7466 5.99947 23.8001 6.25172 23.8793 6.49683C23.9585 6.74193 24.0655 6.95373 24.2003 7.13696C24.3352 7.3202 24.5106 7.41063 24.7247 7.41063H38.1859V9.5H21.1871C20.804 9.5 20.4979 9.40005 20.2732 9.20016C20.0485 9.00027 19.8752 8.74088 19.7575 8.42914C19.6398 8.11502 19.5627 7.7771 19.5285 7.41301C19.4942 7.04892 19.4771 6.6991 19.4771 6.35881V3.64833C19.4771 3.31042 19.4942 2.95822 19.5285 2.59413C19.5627 2.23004 19.6376 1.89212 19.7575 1.578C19.8752 1.26389 20.0485 1.00687 20.2732 0.806979C20.4979 0.607085 20.804 0.504761 21.1871 0.504761H38.1859V2.59413H24.7247C24.5106 2.59413 24.3352 2.68456 24.2003 2.86779C24.0655 3.04865 23.9564 3.26282 23.8793 3.50793C23.8001 3.75304 23.7466 4.00291 23.7188 4.2623C23.691 4.5193 23.676 4.72872 23.676 4.89291V5.11899V5.11185Z" fill="white"/>
<path d="M73.0247 3.98387V6.01613H62.8314V7.40825H77.2557V9.49762H58.5469V0.5H77.2557V2.58937H62.8314V3.98387H73.0247Z" fill="white"/>
<path d="M118.018 9.49762V0.5H122.217V7.40825H135V9.49762H118.018Z" fill="white"/>
<path d="M101.454 9.49762H97.2549V0.5H114.981C115.365 0.5 115.671 0.599942 115.895 0.799836C116.12 0.999731 116.293 1.25912 116.411 1.57086C116.529 1.88498 116.606 2.22289 116.64 2.58699C116.674 2.95108 116.689 3.30089 116.689 3.64119V9.49762H112.49V4.88577C112.49 4.72157 112.478 4.51216 112.448 4.25515C112.42 3.99815 112.366 3.74828 112.287 3.50317C112.208 3.25806 112.101 3.04389 111.966 2.86303C111.829 2.68218 111.656 2.58937 111.442 2.58937H101.452V9.49762H101.454Z" fill="white"/>
<path d="M43.2708 4.43361H52.6016C52.8156 4.43361 53.0189 4.35507 53.2115 4.19801C53.402 4.04095 53.5005 3.83154 53.5005 3.5674C53.5005 3.27945 53.4191 3.04386 53.2543 2.86063C53.0917 2.67977 52.9012 2.58696 52.6872 2.58696H43.2729V4.43122L43.2708 4.43361ZM57.6801 3.58644C57.6801 3.76253 57.648 3.96243 57.5881 4.1885C57.526 4.41457 57.4383 4.6335 57.3248 4.84767C57.2114 5.06184 57.0851 5.24984 56.9439 5.41166C56.8026 5.57586 56.6593 5.67581 56.5116 5.71388C56.6464 5.75196 56.7791 5.82335 56.9097 5.93044C57.0381 6.03752 57.1558 6.15888 57.2563 6.2969C57.3569 6.43493 57.4447 6.57771 57.5196 6.73001C57.5923 6.87993 57.6458 7.01795 57.6801 7.14407V9.49759H53.4812V7.37015C53.4812 7.2821 53.4491 7.18929 53.3892 7.08696C53.3271 6.98702 53.2479 6.89421 53.1516 6.80616C53.0553 6.71811 52.9505 6.64672 52.8392 6.58961C52.7257 6.53488 52.6187 6.50632 52.5181 6.50632H43.2558V9.49997H39.0569V0.50235H55.9701C56.3532 0.50235 56.6593 0.599918 56.884 0.792673C57.1108 0.987807 57.282 1.2353 57.3997 1.53752C57.5174 1.83974 57.5945 2.17052 57.6287 2.53461C57.663 2.8987 57.6801 3.2509 57.6801 3.58881" fill="white"/>
<path d="M0 3.32469C0 2.98678 0.0171208 2.65124 0.0513625 2.31808C0.0856042 1.9873 0.160508 1.68509 0.280354 1.4138C0.39806 1.1449 0.571408 0.923587 0.798259 0.754629C1.02297 0.585671 1.32901 0.5 1.71208 0.5H18.5932V2.58937H4.96077C4.7703 2.58937 4.59481 2.63934 4.43644 2.73929C4.27807 2.83924 4.19889 3.01534 4.19889 3.26758C4.19889 3.55553 4.29733 3.74828 4.49636 3.84108C4.69325 3.93627 4.88372 3.98387 5.06349 3.98387H16.8812C17.2878 3.98387 17.6067 4.10048 17.8378 4.33131C18.0689 4.56452 18.2401 4.83342 18.3535 5.1404C18.467 5.44738 18.5333 5.7496 18.5569 6.04468C18.5804 6.33976 18.5911 6.54917 18.5911 6.6753C18.5911 7.01321 18.574 7.35113 18.5397 7.68191C18.5055 8.01507 18.4306 8.31729 18.3107 8.58619C18.193 8.8551 18.0197 9.07403 17.7928 9.24537C17.566 9.41433 17.2621 9.5 16.879 9.5H0V7.41062H13.6282C13.8208 7.41062 13.9963 7.36066 14.1525 7.26071C14.3087 7.16076 14.3901 6.98466 14.3901 6.73242C14.3901 6.44447 14.2916 6.25171 14.0947 6.15653C13.8957 6.06372 13.7074 6.01613 13.5276 6.01613H1.70994C1.30332 6.01613 0.984449 5.89952 0.753317 5.66869C0.522186 5.43548 0.348837 5.16658 0.237552 4.8596C0.124126 4.55262 0.0577829 4.25039 0.0342417 3.95531C0.0107005 3.66023 0 3.45082 0 3.32469Z" fill="white"/>
<path d="M92.5596 3.98387V6.01613H82.3663V7.40825H96.7927V9.49762H78.0839V0.5H96.7927V2.58937H82.3663V3.98387H92.5596Z" fill="white"/>
</svg>
