<svg width="268" height="150" viewBox="0 0 268 150" fill="none" xmlns="http://www.w3.org/2000/svg">
<g clip-path="url(#clip0_101_20)">
<path d="M47.0012 142.155C47.0012 142.448 47.0267 142.823 47.0862 143.283C47.1414 143.743 47.2476 144.194 47.4048 144.632C47.562 145.071 47.7744 145.45 48.0421 145.777C48.3098 146.105 48.6581 146.267 49.083 146.267H75.8061V150.004H42.0602C41.2997 150.004 40.6922 149.825 40.2461 149.468C39.8 149.11 39.4559 148.646 39.2222 148.089C38.9885 147.527 38.8356 146.922 38.7676 146.271C38.6996 145.62 38.6656 144.994 38.6656 144.385V139.537C38.6656 138.932 38.6996 138.302 38.7676 137.651C38.8356 137 38.9843 136.395 39.2222 135.833C39.4559 135.272 39.8 134.812 40.2461 134.454C40.6922 134.097 41.2997 133.914 42.0602 133.914H75.8061V137.651H49.083C48.6581 137.651 48.3098 137.813 48.0421 138.141C47.7744 138.464 47.5578 138.847 47.4048 139.286C47.2476 139.724 47.1414 140.171 47.0862 140.635C47.031 141.095 47.0012 141.469 47.0012 141.763V142.168V142.155Z" fill="white"/>
<path d="M144.968 140.137V143.772H124.732V146.263H153.367V150H116.226V133.905H153.367V137.643H124.732V140.137H144.968Z" fill="white"/>
<path d="M234.288 150V133.905H242.624V146.263H268V150H234.288Z" fill="white"/>
<path d="M201.405 150H193.069V133.905H228.259C229.02 133.905 229.627 134.084 230.074 134.441C230.52 134.799 230.864 135.263 231.097 135.821C231.331 136.383 231.484 136.987 231.552 137.638C231.62 138.29 231.65 138.915 231.65 139.524V150H223.314V141.75C223.314 141.457 223.289 141.082 223.229 140.622C223.174 140.163 223.068 139.716 222.911 139.277C222.753 138.839 222.541 138.456 222.273 138.132C222.001 137.809 221.657 137.643 221.232 137.643H201.4V150H201.405Z" fill="white"/>
<path d="M85.9005 140.942H104.424C104.849 140.942 105.252 140.801 105.635 140.52C106.013 140.239 106.208 139.865 106.208 139.392C106.208 138.877 106.047 138.456 105.72 138.128C105.397 137.804 105.019 137.638 104.594 137.638H85.9048V140.937L85.9005 140.942ZM114.506 139.426C114.506 139.741 114.442 140.099 114.323 140.503C114.2 140.908 114.026 141.299 113.8 141.682C113.575 142.065 113.325 142.402 113.044 142.691C112.764 142.985 112.479 143.164 112.186 143.232C112.454 143.3 112.717 143.428 112.976 143.619C113.231 143.811 113.465 144.028 113.665 144.275C113.864 144.522 114.038 144.777 114.187 145.049C114.332 145.318 114.438 145.564 114.506 145.79V150H106.17V146.194C106.17 146.037 106.106 145.871 105.987 145.688C105.864 145.509 105.707 145.343 105.516 145.186C105.325 145.028 105.117 144.9 104.896 144.798C104.67 144.7 104.458 144.649 104.258 144.649H85.8708V150.004H77.5352V133.909H111.111C111.872 133.909 112.479 134.084 112.925 134.429C113.376 134.778 113.716 135.22 113.949 135.761C114.183 136.302 114.336 136.893 114.404 137.545C114.472 138.196 114.506 138.826 114.506 139.43" fill="white"/>
<path d="M0 138.958C0 138.353 0.033988 137.753 0.101964 137.157C0.16994 136.566 0.318638 136.025 0.556554 135.54C0.790222 135.059 1.13435 134.663 1.58469 134.361C2.03079 134.058 2.63832 133.905 3.3988 133.905H36.911V137.643H9.84804C9.46992 137.643 9.12154 137.732 8.80715 137.911C8.49276 138.09 8.33557 138.405 8.33557 138.856C8.33557 139.371 8.531 139.716 8.92611 139.882C9.31697 140.052 9.69509 140.137 10.052 140.137H33.5122C34.3194 140.137 34.9525 140.346 35.4113 140.759C35.8701 141.176 36.21 141.657 36.4352 142.206C36.6604 142.755 36.7921 143.296 36.8388 143.823C36.8855 144.351 36.9068 144.726 36.9068 144.951C36.9068 145.556 36.8728 146.16 36.8048 146.752C36.7368 147.348 36.5881 147.889 36.3502 148.37C36.1165 148.851 35.7724 149.242 35.3221 149.549C34.8717 149.851 34.2684 150.004 33.508 150.004H0V146.267H27.0545C27.4369 146.267 27.7852 146.177 28.0954 145.999C28.4055 145.82 28.567 145.505 28.567 145.054C28.567 144.539 28.3715 144.194 27.9807 144.023C27.5855 143.857 27.2117 143.772 26.8548 143.772H3.39456C2.58734 143.772 1.95431 143.564 1.49547 143.151C1.03664 142.734 0.692506 142.253 0.471584 141.704C0.246413 141.154 0.11471 140.614 0.0679761 140.086C0.0212425 139.558 0 139.184 0 138.958Z" fill="white"/>
<path d="M183.748 140.137V143.772H163.512V146.263H192.151V150H155.011V133.905H192.151V137.643H163.512V140.137H183.748Z" fill="white"/>
<g clip-path="url(#clip1_101_20)">
<path d="M106.304 86.1871L112.662 92.4033L160.839 45.3012L154.481 39.085L106.304 86.1871Z" fill="url(#paint0_linear_101_20)"/>
<path d="M160.846 57.7266L154.488 51.5103L106.31 98.6125L112.669 104.829L160.846 57.7266Z" fill="url(#paint1_linear_101_20)"/>
<path d="M106.31 111.046L112.668 117.262L160.845 70.1597L154.487 63.9434L106.31 111.046Z" fill="url(#paint2_linear_101_20)"/>
<path d="M160.84 8.00167L154.482 1.78543L106.305 48.8876L112.663 55.1038L160.84 8.00167Z" fill="url(#paint3_linear_101_20)"/>
<path d="M160.839 32.868L154.481 26.6518L106.303 73.7539L112.662 79.9701L160.839 32.868Z" fill="url(#paint4_linear_101_20)"/>
<path d="M106.296 61.328L112.654 67.5442L160.831 20.4421L154.473 14.2259L106.296 61.328Z" fill="url(#paint5_linear_101_20)"/>
</g>
</g>
<defs>
<linearGradient id="paint0_linear_101_20" x1="108.205" y1="89.7036" x2="156.907" y2="41.5788" gradientUnits="userSpaceOnUse">
<stop stop-color="white"/>
<stop offset="1" stop-color="white" stop-opacity="0"/>
</linearGradient>
<linearGradient id="paint1_linear_101_20" x1="158.944" y1="54.2103" x2="110.243" y2="102.334" gradientUnits="userSpaceOnUse">
<stop stop-color="white"/>
<stop offset="1" stop-color="white" stop-opacity="0"/>
</linearGradient>
<linearGradient id="paint2_linear_101_20" x1="108.21" y1="114.563" x2="156.912" y2="66.4388" gradientUnits="userSpaceOnUse">
<stop stop-color="white"/>
<stop offset="1" stop-color="white" stop-opacity="0"/>
</linearGradient>
<linearGradient id="paint3_linear_101_20" x1="157.625" y1="4.84601" x2="110.945" y2="52.7611" gradientUnits="userSpaceOnUse">
<stop stop-color="white"/>
<stop offset="1" stop-color="white" stop-opacity="0"/>
</linearGradient>
<linearGradient id="paint4_linear_101_20" x1="157.182" y1="29.815" x2="111.011" y2="77.8831" gradientUnits="userSpaceOnUse">
<stop stop-color="white"/>
<stop offset="1" stop-color="white" stop-opacity="0"/>
</linearGradient>
<linearGradient id="paint5_linear_101_20" x1="109.513" y1="64.4832" x2="156.192" y2="16.569" gradientUnits="userSpaceOnUse">
<stop stop-color="white"/>
<stop offset="1" stop-color="white" stop-opacity="0"/>
</linearGradient>
<clipPath id="clip0_101_20">
<rect width="268" height="150" fill="white"/>
</clipPath>
<clipPath id="clip1_101_20">
<rect width="54.5487" height="115.476" fill="white" transform="translate(106.297 1.78574)"/>
</clipPath>
</defs>
</svg>
