<svg width="36" height="37" viewBox="0 0 36 37" fill="none" xmlns="http://www.w3.org/2000/svg">
<path d="M30.7892 12.5865C30.4404 12.2377 29.977 12.0457 29.4837 12.0457C28.9908 12.0457 28.527 12.2377 28.1783 12.5865L22.6334 18.1314L18.2735 13.7718L23.8184 8.22692C24.1672 7.87815 24.3592 7.41474 24.3592 6.92146C24.3592 6.42818 24.1672 5.96477 23.8184 5.616C23.4696 5.26724 23.0062 5.0752 22.5129 5.0752C22.02 5.0752 21.5563 5.26724 21.2075 5.616L15.6629 11.1609L12.5982 8.09621C12.4415 7.93949 12.1872 7.93949 12.0304 8.09621L9.96483 10.1618C9.80811 10.3185 9.80811 10.5729 9.96483 10.7296L11.3172 12.0819L4.95336 18.4458C4.87821 18.5209 4.83582 18.623 4.83582 18.7297C4.83582 18.8363 4.87821 18.9381 4.95336 19.0135L10.6052 24.6654L6.08186 29.1887C5.76842 29.5022 5.76842 30.0105 6.08186 30.3243C6.23858 30.481 6.44411 30.5594 6.64965 30.5594C6.85518 30.5594 7.06071 30.481 7.21743 30.3243L11.7408 25.801L17.3926 31.4528C17.471 31.5312 17.5737 31.5703 17.6765 31.5703C17.7793 31.5703 17.882 31.5312 17.9604 31.4528L24.3242 25.089L25.6765 26.4413C25.7517 26.5165 25.8538 26.5589 25.9604 26.5589C26.0671 26.5589 26.1692 26.5165 26.2443 26.4413L28.3099 24.3757C28.4667 24.219 28.4667 23.9646 28.3099 23.8079L25.2449 20.7429L30.7898 15.198C31.5092 14.4774 31.5092 13.3062 30.7892 12.5865Z" fill="white"/>
</svg>
