<svg width="36" height="37" viewBox="0 0 36 37" fill="none" xmlns="http://www.w3.org/2000/svg">
<path d="M16.5607 5.04565H5.04688C4.78193 5.04565 4.56714 5.26044 4.56714 5.5254V17.0393C4.56714 17.3042 4.78193 17.519 5.04688 17.519H16.5607C16.8257 17.519 17.0405 17.3042 17.0405 17.0393V5.5254C17.0405 5.26044 16.8257 5.04565 16.5607 5.04565Z" fill="white"/>
<path d="M33.1024 2.89648H21.5885C21.3236 2.89648 21.1088 3.11127 21.1088 3.37623V14.8901C21.1088 15.155 21.3236 15.3698 21.5885 15.3698H33.1024C33.3673 15.3698 33.5821 15.155 33.5821 14.8901V3.37623C33.5821 3.11127 33.3673 2.89648 33.1024 2.89648Z" fill="white"/>
<path d="M16.5607 19.438H5.04688C4.78193 19.438 4.56714 19.6528 4.56714 19.9177V31.4316C4.56714 31.6965 4.78193 31.9113 5.04688 31.9113H16.5607C16.8257 31.9113 17.0405 31.6965 17.0405 31.4316V19.9177C17.0405 19.6528 16.8257 19.438 16.5607 19.438Z" fill="white"/>
<path d="M30.9531 19.438H19.4392C19.1743 19.438 18.9595 19.6528 18.9595 19.9177V31.4316C18.9595 31.6965 19.1743 31.9113 19.4392 31.9113H30.9531C31.218 31.9113 31.4328 31.6965 31.4328 31.4316V19.9177C31.4328 19.6528 31.218 19.438 30.9531 19.438Z" fill="white"/>
</svg>
